<svg xmlns="http://www.w3.org/2000/svg" width="180" height="180" viewBox="0 0 180 180">
  <!-- 背景 -->
  <defs>
    <linearGradient id="grad1" x1="0%" y1="0%" x2="100%" y2="100%">
      <stop offset="0%" style="stop-color:#4a6fa5;stop-opacity:1" />
      <stop offset="100%" style="stop-color:#166088;stop-opacity:1" />
    </linearGradient>
  </defs>
  <rect width="180" height="180" rx="45" fill="url(#grad1)" />
  
  <!-- 大脑图标 -->
  <path d="M90,35 C65,35 45,55 45,80 C45,95 55,105 65,110 L65,130 C65,137 70,142 77,142 L103,142 C110,142 115,137 115,130 L115,110 C125,105 135,95 135,80 C135,55 115,35 90,35 Z" 
        fill="#ffffff" fill-opacity="0.9" />
  
  <!-- 大脑纹路 -->
  <path d="M70,85 C67,85 65,83 65,80 C65,77 67,75 70,75 C73,75 75,77 75,80 C75,83 73,85 70,85 Z
           M110,85 C107,85 105,83 105,80 C105,77 107,75 110,75 C113,75 115,77 115,80 C115,83 113,85 110,85 Z
           M90,65 C87,65 85,63 85,60 C85,57 87,55 90,55 C93,55 95,57 95,60 C95,63 93,65 90,65 Z" 
        fill="#166088" />
  
  <!-- M字母 -->
  <path d="M65,120 L75,120 L85,100 L95,120 L105,120 L115,90 L105,90 L100,105 L90,90 L80,90 L70,105 L65,90 L55,90 Z" 
        fill="#166088" fill-opacity="0.9" />
</svg> 