<svg xmlns="http://www.w3.org/2000/svg" width="32" height="32" viewBox="0 0 32 32">
  <!-- 背景 -->
  <defs>
    <linearGradient id="grad1" x1="0%" y1="0%" x2="100%" y2="100%">
      <stop offset="0%" style="stop-color:#4a6fa5;stop-opacity:1" />
      <stop offset="100%" style="stop-color:#166088;stop-opacity:1" />
    </linearGradient>
  </defs>
  <rect width="32" height="32" rx="8" fill="url(#grad1)" />
  
  <!-- 大脑图标 -->
  <path d="M16,6 C11,6 8,9 8,13 C8,15 9,17 11,18 L11,22 C11,23.1 11.9,24 13,24 L19,24 C20.1,24 21,23.1 21,22 L21,18 C23,17 24,15 24,13 C24,9 21,6 16,6 Z" 
        fill="#ffffff" fill-opacity="0.9" />
  
  <!-- 大脑纹路 -->
  <path d="M13,14 C12.4,14 12,13.6 12,13 C12,12.4 12.4,12 13,12 C13.6,12 14,12.4 14,13 C14,13.6 13.6,14 13,14 Z
           M19,14 C18.4,14 18,13.6 18,13 C18,12.4 18.4,12 19,12 C19.6,12 20,12.4 20,13 C20,13.6 19.6,14 19,14 Z
           M16,11 C15.4,11 15,10.6 15,10 C15,9.4 15.4,9 16,9 C16.6,9 17,9.4 17,10 C17,10.6 16.6,11 16,11 Z" 
        fill="#166088" />
  
  <!-- M字母 -->
  <path d="M12,20 L13,20 L14,17 L15,20 L16,20 L17,16 L16,16 L15.5,18.5 L14.5,16 L13.5,16 L12.5,18.5 L12,16 L11,16 Z" 
        fill="#166088" fill-opacity="0.9" />
  
  <!-- B字母 -->
  <path d="M18,16 L20,16 C20.6,16 21,16.4 21,17 C21,17.3 20.8,17.6 20.6,17.7 C20.8,17.9 21,18.1 21,18.5 C21,19.3 20.3,20 19.5,20 L18,20 Z M19,17.7 L19,17.7 C19.3,17.7 19.5,17.5 19.5,17.2 C19.5,17 19.3,16.8 19,16.8 L18.7,16.8 L18.7,17.7 Z M19.2,19.2 C19.4,19.2 19.6,19 19.6,18.8 C19.6,18.5 19.4,18.3 19.2,18.3 L18.7,18.3 L18.7,19.2 Z" 
        fill="#166088" fill-opacity="0.9" />
</svg> 